<svg xmlns="http://www.w3.org/2000/svg" width="121.619" height="167" viewBox="0 0 121.619 167">
  <path id="back_social" d="M320.5,647.5A83.5,83.5,0,1,1,353,487.06c1.9.8,3.789,1.687,5.616,2.625v15.7a69.867,69.867,0,1,0,0,116.7v16.232c-1.83.939-3.719,1.821-5.616,2.623A82.931,82.931,0,0,1,320.5,647.5Zm-7.124-27.914h0a56.214,56.214,0,0,1-36.012-92.339c.08.93.2,1.9.3,2.747l.008.063a27.906,27.906,0,0,1,.329,4.816q-.037.538-.076,1.055v.026q-.021.287-.042.57v.015c-.485,6.637-.8,11.022,3.256,16.875a18.894,18.894,0,0,1,2.344,6.41c.2.857.394,1.664.624,2.449.622,2.131,2.632,3.47,4.576,4.764l.056.037c.6.4,1.161.777,1.684,1.179,1.6,1.223,3.231,2.568,4.674,3.755a94.517,94.517,0,0,0,8.995,6.815l.264.167.009.006.191.121.03.018c2.875,1.817,4.61,2.914,3.73,6.578-.131.543-.243,1.042-.351,1.525l0,.009-.015.068,0,.014a19.252,19.252,0,0,1-2.195,6.185c-.473.813,1.828,6.256,2.635,7.066,2.517,2.518,4.835,4.636,7.294,6.665,2.962,2.447,1.356,5.37-.5,8.756l0,.008a33.613,33.613,0,0,0-1.788,3.575h0ZM330.75,619v-.005a23.426,23.426,0,0,1,6.911-9.261,23.636,23.636,0,0,0,6.213-7.681,46.082,46.082,0,0,1,3.772-6.542q.161-.25.324-.5l.185-.285a2.6,2.6,0,0,0,.257-2.251c-.943-3.129-6.288-6.606-8.256-7.462a68.283,68.283,0,0,1-12.675-7.7l-.478-.34c-.571-.406-1.145-.815-1.728-1.228a5.9,5.9,0,0,0-3.461-.883,29.119,29.119,0,0,0-4.3.456l-.012,0-.053.008a29.309,29.309,0,0,1-4.259.45,6.9,6.9,0,0,1-2.754-.48c-4.234-1.848-7.945-4.783-11.534-7.62l-.07-.055c-1.062-.84-2.161-1.708-3.25-2.529-4.732-3.567-4.722-7.659-4.71-12.839v-.727c.178.008.38.012.7.012.659,0,1.327-.025,2.131-.057l.168-.009c.7-.028,1.569-.063,2.386-.063,2.372,0,5.008.256,6.579,2.159.1.12.235.3.443.581.93,1.247,2.661,3.569,4.144,3.569a1.346,1.346,0,0,0,.884-.332c1.339-1.117-.554-5.221-1.363-6.974-.113-.242-.211-.461-.278-.616-1.123-2.627,1.139-4.1,3.533-5.653l.034-.022a19.029,19.029,0,0,0,2.679-1.972c.956-.9,2.214-1.948,3.431-2.961,3.416-2.845,7.288-6.069,6.86-7.78-.521-2.074-6.352-8.057-10.536-8.057a3.614,3.614,0,0,0-.9.108,43.956,43.956,0,0,0-4.5,4.218c-1.1,1.1-2.042,2.042-2.419,2.362q.011-.672.021-1.344l0-.109q.009-.625.019-1.251.008-.594.017-1.179c.008-.522.015-1.038.022-1.555.009-.627-.648-1.284-1.176-1.811l-.009-.009c-.46-.463-.9-.9-.85-1.237.168-1.238,2.533-3.165,4.434-4.713l.089-.073a21.646,21.646,0,0,0,2.217-1.954c-.222-.14-.59-.415-.979-.706l-.035-.026c-1.144-.851-2.871-2.136-3.7-2.136a.549.549,0,0,0-.219.039c-1.154.481-2.429.9-3.554,1.273l-.131.044c-1.136.377-2.311.766-3.4,1.22a14.427,14.427,0,0,0-.209-2.249,55.762,55.762,0,0,1,14.3-4.153l4.443,1.787,3.137,3.721,3.132,3.231,2.737.883,4.344-4.1-1.116-2.929v-2.629a55.3,55.3,0,0,1,23.828,9.4c-1.076.1-2.3.253-3.482.4l-.767.1a6.957,6.957,0,0,0-1.46-.582l-.007,0-.111-.035c-.208-.066-.422-.134-.62-.21,2.226,4.785,4.482,9.343,6.4,13.172a42.864,42.864,0,0,0,3.49,5.437l.028.04c1.018,1.428,2.07,2.906,2.942,4.383V604.8A55.889,55.889,0,0,1,330.752,619Z" transform="translate(-237 -480.5)" fill="#fff" opacity="0.15"/>
</svg>
