<svg xmlns="http://www.w3.org/2000/svg" width="116" height="161" viewBox="0 0 116 161">
  <path id="back_tools" d="M317.5,655a80.5,80.5,0,1,1,0-161,81.3,81.3,0,0,1,18.353,2.089A79.688,79.688,0,0,1,353,502.2v30.682l-2.48,1a50.524,50.524,0,0,0-11.625-6.787l-2.559-18.178a3.58,3.58,0,0,0-3.445-2.852H305.34a3.585,3.585,0,0,0-3.445,2.95l-2.559,18.178a52.927,52.927,0,0,0-11.612,6.781L270.6,527.1a3.452,3.452,0,0,0-1.235-.228,3.5,3.5,0,0,0-2.993,1.7L252.6,552.355a3.45,3.45,0,0,0,.787,4.419l14.563,11.4a49.154,49.154,0,0,0-.49,6.682,52.594,52.594,0,0,0,.49,6.781l-14.563,11.4a3.449,3.449,0,0,0-.787,4.419l13.775,23.783a3.471,3.471,0,0,0,4.228,1.469l17.122-6.88h.006a50.467,50.467,0,0,0,11.609,6.788L301.9,640.8a3.581,3.581,0,0,0,3.445,2.849h27.55a3.577,3.577,0,0,0,3.445-2.948l2.559-18.182a52.855,52.855,0,0,0,11.612-6.781l2.494,1v30.051a79.672,79.672,0,0,1-17.148,6.116A81.293,81.293,0,0,1,317.5,655Zm9.105-29.507H311.627a1.942,1.942,0,0,1-1.871-1.551l-1.392-23.118a27.658,27.658,0,0,1-6.314-3.688l-19.3,10.4a1.876,1.876,0,0,1-.671.124,1.9,1.9,0,0,1-1.627-.924l-7.489-12.926a1.883,1.883,0,0,1,.428-2.4l17.908-12.86a28.949,28.949,0,0,1-.266-3.685,26.875,26.875,0,0,1,.266-3.632l-17.908-12.86a1.884,1.884,0,0,1-.428-2.4l7.489-12.929a1.9,1.9,0,0,1,1.627-.926,1.868,1.868,0,0,1,.672.125l19.3,10.4a28.786,28.786,0,0,1,6.314-3.686l1.392-23.117a1.935,1.935,0,0,1,1.871-1.6H326.6a1.934,1.934,0,0,1,1.871,1.547l1.392,23.118a27.505,27.505,0,0,1,6.32,3.692L353,543.519v23.3l-6.067,4.356a28.975,28.975,0,0,1,.266,3.685,27.542,27.542,0,0,1-.266,3.632L353,582.841v23.271l-16.819-9.03a28.656,28.656,0,0,1-6.313,3.689l-1.392,23.117A1.942,1.942,0,0,1,326.6,625.493Z" transform="translate(-237 -494)" fill="#fff" opacity="0.15"/>
</svg>
