<svg xmlns="http://www.w3.org/2000/svg" width="123.628" height="156.094" viewBox="0 0 123.628 156.094">
  <path id="back_games" d="M270.2,655c-.867,0-1.736-.009-2.4-.017h-.19l-.525,0c-.743-.006-1.511-.013-2.3-.013a21.075,21.075,0,0,1-7.655-1.482c-9.3-3.615-15.453-11.689-18.293-24-3.053-13.246-2.286-31.558,2.279-54.427,8.834-44.189,21.944-67.754,41.258-74.163a42.608,42.608,0,0,1,12.857-1.991h.166c5.618,0,10.509,1.54,15.688,3.171l.005,0c6.255,1.969,13.345,4.2,23.7,4.2.726,0,1.492-.012,2.275-.037.786.025,1.551.037,2.274.037a67.988,67.988,0,0,0,21.291-3.447v14.863l-.894.281-.063.02c-5.359,1.688-11.433,3.6-20.338,3.6-.744,0-1.508-.015-2.271-.044-.761.029-1.525.044-2.272.044-8.9,0-14.976-1.914-20.338-3.6-4.442-1.4-8.638-2.722-13.467-2.722h-.125a36.794,36.794,0,0,0-11.046,1.706c-16.57,5.5-27.818,25.714-35.4,63.625-4.1,20.531-5.083,33.5-3.2,42.043,1.77,8.015,5.956,12.63,14.448,15.931a17.874,17.874,0,0,0,6.564,1.273c10.7,0,19.259-10.224,24.763-17.915,6.527-9.127,14.166-13.761,37.8-13.761.847,0,1.59,0,2.272.013.684-.009,1.427-.013,2.271-.013,9.027,0,15.993.694,21.295,2.121v16.261c-4.018-1.774-9.027-2.637-15.316-2.637-1.868,0-3.878.075-5.975.223-.976,0-1.656,0-2.274.014-.616-.01-1.3-.014-2.275-.014-2.094-.148-4.1-.223-5.971-.223-17.807,0-22.681,6.816-29.427,16.25l-.006.009C285.555,654,279.131,655,270.2,655Zm9.918-36.415a18.4,18.4,0,0,1-4.925-.67,8.169,8.169,0,0,1-5.285-4.445c-4.147-8.288.079-26.259,4.76-42.745,5.568-19.609,9.966-35.1,22.606-38.049a38.115,38.115,0,0,1,8.273-.9h.112c1.537,0,5.832,1.4,10.805,3.012,6.884,2.238,14.686,4.774,18.524,4.774.638,0,1.318-.011,2.079-.034.76.023,1.441.034,2.082.034,3.838,0,11.64-2.536,18.524-4.774.98-.318,1.992-.648,2.96-.958V594.9c-5.333-1.3-12.36-1.929-21.484-1.929-.945,0-1.548,0-2.082.013-.531-.01-1.133-.013-2.079-.013-17.251,0-27.221,2.241-32.325,7.268-.887.874-2,2.131-3.483,3.812C294.064,609.838,286.341,618.585,280.113,618.585Z" transform="translate(-237 -498.906)" fill="#fff" opacity="0.15"/>
</svg>
