<svg xmlns="http://www.w3.org/2000/svg" xmlns:xlink="http://www.w3.org/1999/xlink" width="79.68" height="72.843" viewBox="0 0 79.68 72.843">
  <defs>
    <linearGradient id="linear-gradient" x1="0.5" x2="0.5" y2="1" gradientUnits="objectBoundingBox">
      <stop offset="0" stop-color="#ff9a58"/>
      <stop offset="0.51" stop-color="#ff5e00"/>
      <stop offset="1" stop-color="#985600"/>
    </linearGradient>
  </defs>
  <path id="Path_4031" data-name="Path 4031" d="M4734.3-1305.173h-5.06a1.094,1.094,0,0,1-.759-.225h0a1.336,1.336,0,0,1-.208-.821l1.486-24.457a2.171,2.171,0,0,1,.091-.492,1.3,1.3,0,0,1,.205-.37l6.469-11.18s.23-.422.494-.439.563.37.563.37l2.857,3.08s.367.342.369.634-.366.534-.366.534l-6.55,7.752a1.53,1.53,0,0,0-.349.454,1.81,1.81,0,0,0-.139.587l-.976,17.331a1.28,1.28,0,0,0,0,.654c.108.209.431.18.431.18h1.436a.882.882,0,0,0,.613-.092,1.18,1.18,0,0,0,.332-.6l5.533-15.16a4.146,4.146,0,0,1,.24-.509,4.536,4.536,0,0,1,.32-.476l7.049-9.444a1.082,1.082,0,0,0,.339-.7,1.273,1.273,0,0,0-.46-.682l-6.343-8.387a1.019,1.019,0,0,1-.354-.629,1.384,1.384,0,0,1,.327-.732l1.7-2.5s.31-.454.693-.436.841.508.841.508l.344.321,17.725,15.544s.527.36.489.684-.636.619-.636.619l-9.724,3.744s-.516.189-.582.543a1.511,1.511,0,0,0,.316.873l7.285,9.072s.229.39.1.581-.63.183-.63.183l-11.666-2.224a2.058,2.058,0,0,0-.438.064,1.511,1.511,0,0,0-.371.17l-6.021,3.944a1.86,1.86,0,0,0-.549.454,2.042,2.042,0,0,0-.307.667l-4.425,9.669a2.436,2.436,0,0,1-.637,1.115,1.393,1.393,0,0,1-.837.242A1.807,1.807,0,0,1,4734.3-1305.173Zm-22.006-.225a2.439,2.439,0,0,1-.638-1.115l-4.424-9.669a2.084,2.084,0,0,0-.306-.667,1.874,1.874,0,0,0-.549-.454l-6.022-3.944a1.533,1.533,0,0,0-.371-.17,2.057,2.057,0,0,0-.438-.064l-11.666,2.224s-.5.008-.63-.183.1-.581.1-.581l7.283-9.072s.384-.518.317-.873-.582-.543-.582-.543l-9.724-3.744s-.6-.293-.637-.619.489-.684.489-.684l17.726-15.544.343-.321s.458-.491.841-.508.693.436.693.436l1.7,2.5a1.372,1.372,0,0,1,.327.732,1.014,1.014,0,0,1-.354.629l-6.343,8.387a1.278,1.278,0,0,0-.46.682,1.087,1.087,0,0,0,.338.7l7.05,9.444a4.379,4.379,0,0,1,.321.476,4.146,4.146,0,0,1,.24.509l5.532,15.16a1.18,1.18,0,0,0,.332.6.886.886,0,0,0,.614.092h1.435s.323.029.431-.18a1.269,1.269,0,0,0,0-.654l-.976-17.331a1.81,1.81,0,0,0-.139-.587,1.533,1.533,0,0,0-.349-.454l-6.551-7.752s-.365-.242-.365-.534.371-.634.371-.634l2.855-3.08s.3-.388.563-.37.5.439.5.439l6.468,11.18a1.261,1.261,0,0,1,.2.37,2.185,2.185,0,0,1,.092.492l1.485,24.457a1.333,1.333,0,0,1-.208.821h0a1.094,1.094,0,0,1-.759.225h-5.058a1.839,1.839,0,0,1-.255.016A1.394,1.394,0,0,1,4712.29-1305.4Zm9.706-29.528-3.695-6.652h11.076l-3.694,6.652-1.843,15.415Zm34.668-11.5-9.617-7.506c-.006,0-.6-.35-.622-.8s.512-1,.517-1.006l3.407-4.622-.75-5.76c0-.01-.128-1.032-.485-1.041h0c-.356,0-.945,1-.95,1.007l-14.128,16.8a1.641,1.641,0,0,1-.517.541,1.425,1.425,0,0,1-.651.149c-.034,0-.054,0-.057,0h-6.833v-11.37h9.541s.072.005.173.005a2.056,2.056,0,0,0,.785-.136,1.44,1.44,0,0,0,.594-.577l13.643-16.08c.009-.012.774-1.181,1.2-1.181s.5,1.175.5,1.187l1.8,18.749,3.9,11.317c0,.01.207,1-.148,1.083a.287.287,0,0,1-.054,0C4757.516-1345.659,4756.672-1346.418,4756.665-1346.425Zm-66.53.761c-.354-.079-.15-1.072-.147-1.083l3.9-11.317,1.8-18.749c0-.012.082-1.186.5-1.187s1.185,1.169,1.193,1.181l13.645,16.08a1.428,1.428,0,0,0,.592.577,2.068,2.068,0,0,0,.785.136c.1,0,.17-.005.173-.005h9.542v11.37h-6.833s-.023,0-.057,0a1.427,1.427,0,0,1-.652-.149,1.63,1.63,0,0,1-.516-.541l-14.127-16.8c-.006-.011-.594-1.007-.951-1.007h0c-.355.009-.484,1.031-.485,1.041l-.75,5.76,3.407,4.622c.006.005.546.561.519,1.006s-.619.792-.623.8l-9.616,7.506c-.009.008-.853.766-1.239.766A.271.271,0,0,1,4690.135-1345.664Z" transform="translate(-4684 1377.999)" fill="url(#linear-gradient)"/>
</svg>
