        <svg xmlns="http://www.w3.org/2000/svg" width="37.624" height="37.624" viewBox="0 0 37.624 37.624">
  <path id="icon_social" d="M11.489,36.145a18.87,18.87,0,1,1,7.323,1.479A18.74,18.74,0,0,1,11.489,36.145ZM3.011,18.751a15.74,15.74,0,1,0,15.74-15.74A15.758,15.758,0,0,0,3.011,18.751Zm14.2,12.584a12.664,12.664,0,0,1-8.113-20.8c.018.2.043.416.068.62a6.377,6.377,0,0,1,.076,1.1c-.009.127-.018.251-.027.372a5.01,5.01,0,0,0,.733,3.805,4.258,4.258,0,0,1,.528,1.445c.046.194.089.376.14.551A2.2,2.2,0,0,0,11.642,19.5c.139.093.271.181.392.274.354.271.71.563,1.053.846a21.288,21.288,0,0,0,2.026,1.535l.1.066.007,0c.648.409,1.039.656.841,1.482-.031.129-.057.247-.083.361a4.349,4.349,0,0,1-.5,1.4,3.6,3.6,0,0,0,.594,1.592c.569.569,1.091,1.046,1.643,1.5.668.552.3,1.211-.115,1.974a7.536,7.536,0,0,0-.4.805h0Zm3.915-.133a5.279,5.279,0,0,1,1.557-2.086,5.325,5.325,0,0,0,1.4-1.73,10.419,10.419,0,0,1,.85-1.474l.115-.177a.585.585,0,0,0,.058-.507c-.212-.7-1.417-1.488-1.86-1.681a15.387,15.387,0,0,1-2.856-1.735l-.5-.353a1.328,1.328,0,0,0-.78-.2,6.591,6.591,0,0,0-.971.1,6.677,6.677,0,0,1-.971.1,1.553,1.553,0,0,1-.621-.108,12.21,12.21,0,0,1-2.6-1.717c-.245-.194-.5-.393-.748-.582-1.065-.8-1.064-1.725-1.061-2.893V16c.045,0,.1,0,.157,0,.153,0,.312-.006.48-.013l.038,0c.167-.007.356-.014.538-.014a1.835,1.835,0,0,1,1.482.486c.026.031.06.077.1.131.21.281.6.8.934.8a.3.3,0,0,0,.2-.075c.3-.252-.125-1.176-.307-1.571-.027-.058-.049-.106-.063-.139-.253-.592.256-.923.8-1.274a4.346,4.346,0,0,0,.611-.449c.21-.2.484-.426.773-.667.77-.641,1.642-1.367,1.545-1.753a3.547,3.547,0,0,0-2.374-1.815.817.817,0,0,0-.2.024,9.723,9.723,0,0,0-1.015.95c-.247.247-.46.46-.545.532,0-.2.006-.406.009-.609s.006-.411.009-.616c0-.14-.14-.283-.265-.408-.1-.105-.2-.2-.194-.281.038-.279.571-.713,1-1.062a5.111,5.111,0,0,0,.519-.457c-.049-.031-.129-.09-.221-.159a2.39,2.39,0,0,0-.841-.487.123.123,0,0,0-.049.009c-.256.107-.533.2-.8.287s-.541.179-.8.285a3.231,3.231,0,0,0-.047-.507,12.567,12.567,0,0,1,3.221-.936l1,.4.707.838.706.728.617.2.979-.924-.252-.66V6.213a12.456,12.456,0,0,1,5.368,2.118c-.239.022-.5.055-.785.091L25,8.444a1.565,1.565,0,0,0-.331-.132c-.055-.018-.112-.035-.165-.055.5,1.071,1.008,2.1,1.441,2.967a9.745,9.745,0,0,0,.793,1.234,5.773,5.773,0,0,1,1.1,2.057,12.333,12.333,0,0,1,.145,2.24c0,.565,0,1.148.061,1.8a6.937,6.937,0,0,0,1.672,3.168,3.773,3.773,0,0,0,1.038.176,1.972,1.972,0,0,0,.268-.018,12.7,12.7,0,0,1-9.9,9.321h0Z" fill="#fff"/>
</svg>