<svg xmlns="http://www.w3.org/2000/svg" width="25.393" height="25.394" viewBox="0 0 25.393 25.394">
  <path id="icon_human" d="M29.881,29.253c-.476-2.1-3.194-3.128-4.133-3.459a30.816,30.816,0,0,0-3.445-.661,3.5,3.5,0,0,1-1.594-.734c-.265-.317-.106-3.26-.106-3.26a9.809,9.809,0,0,0,.754-1.435,18.51,18.51,0,0,0,.556-2.506s.542,0,.734-.952a9.369,9.369,0,0,0,.489-2.215c-.04-.761-.456-.741-.456-.741a11.6,11.6,0,0,0,.45-3.393c.06-2.718-2.07-5.4-5.925-5.4-3.908,0-5.991,2.678-5.932,5.4a12.094,12.094,0,0,0,.443,3.393s-.417-.02-.456.741a9.369,9.369,0,0,0,.489,2.215c.185.952.734.952.734.952a18.51,18.51,0,0,0,.556,2.506,9.809,9.809,0,0,0,.754,1.435s.159,2.943-.106,3.26a3.5,3.5,0,0,1-1.594.734,30.815,30.815,0,0,0-3.445.661c-.939.331-3.657,1.356-4.133,3.459a.529.529,0,0,0,.522.641h24.33A.528.528,0,0,0,29.881,29.253Z" transform="translate(-4.501 -4.5)" fill="currentColor"/>
</svg>
