<svg xmlns="http://www.w3.org/2000/svg" width="41" height="41" viewBox="0 0 41 41">
  <path id="icon_tools" d="M6,35A20.5,20.5,0,0,1,35,6,20.5,20.5,0,1,1,6,35Zm6.914-3.969h0a12.847,12.847,0,0,0,2.956,1.728l.652,4.63a.912.912,0,0,0,.877.725h7.016a.911.911,0,0,0,.877-.751l.652-4.63A13.46,13.46,0,0,0,28.905,31l4.361,1.752a.886.886,0,0,0,1.077-.376l3.508-6.057a.878.878,0,0,0-.2-1.125l-3.708-2.9a12.722,12.722,0,0,0,.125-1.7,13.388,13.388,0,0,0-.125-1.726l3.708-2.9a.879.879,0,0,0,.2-1.125L34.343,8.78a.89.89,0,0,0-.762-.433.881.881,0,0,0-.314.058l-4.358,1.752a12.863,12.863,0,0,0-2.96-1.728L25.3,3.8a.912.912,0,0,0-.877-.726H17.4a.913.913,0,0,0-.877.751l-.652,4.629a13.46,13.46,0,0,0-2.957,1.727L8.557,8.428a.881.881,0,0,0-.314-.058A.891.891,0,0,0,7.48,8.8L3.972,14.861a.879.879,0,0,0,.2,1.125l3.708,2.9a12.551,12.551,0,0,0-.125,1.7,13.413,13.413,0,0,0,.125,1.727l-3.708,2.9a.878.878,0,0,0-.2,1.125L7.48,32.4a.884.884,0,0,0,1.077.374l4.36-1.752ZM19,33.486a.5.5,0,0,1-.476-.395L18.173,27.2a7.035,7.035,0,0,1-1.608-.939L11.65,28.913a.482.482,0,0,1-.585-.2L9.158,25.417a.481.481,0,0,1,.109-.612l4.56-3.275a7.324,7.324,0,0,1-.068-.938,6.825,6.825,0,0,1,.068-.925l-4.56-3.275a.481.481,0,0,1-.109-.612l1.907-3.292a.481.481,0,0,1,.585-.2l4.915,2.648a7.33,7.33,0,0,1,1.608-.938l.355-5.887A.492.492,0,0,1,19,7.7h3.814a.5.5,0,0,1,.476.394l.355,5.887a7,7,0,0,1,1.609.94l4.913-2.649a.483.483,0,0,1,.586.2l1.907,3.292a.481.481,0,0,1-.109.612L28,19.653a7.313,7.313,0,0,1,.068.938,6.973,6.973,0,0,1-.068.925l4.538,3.252a.479.479,0,0,1,.109.612l-1.907,3.292a.482.482,0,0,1-.585.2l-4.893-2.627a7.3,7.3,0,0,1-1.608.939l-.355,5.887a.494.494,0,0,1-.476.408Z" fill="#fff"/>
</svg>
