        <svg xmlns="http://www.w3.org/2000/svg" width="39.88" height="31.105" viewBox="0 0 39.88 31.105">
  <path id="icon_game" d="M27.449,28.152c-1.344-1.88-2.316-3.24-5.865-3.24-.371,0-.772.015-1.191.045-.178,0-.321,0-.453,0s-.275,0-.453,0c-.418-.03-.819-.045-1.19-.045-3.55,0-4.521,1.36-5.865,3.24C9.676,30.906,8.4,31.105,6.615,31.105c-.156,0-.314,0-.478,0H6.1c-.181,0-.369,0-.564,0a4.2,4.2,0,0,1-1.525-.3C2.157,30.083.931,28.474.365,26.021c-.608-2.64-.455-6.29.454-10.846C2.58,6.369,5.192,1.674,9.041.4A8.488,8.488,0,0,1,11.6,0h.033a10.163,10.163,0,0,1,3.127.632,14.409,14.409,0,0,0,4.723.837c.151,0,.3,0,.453-.007s.3.007.453.007A14.4,14.4,0,0,0,25.116.632,10.172,10.172,0,0,1,28.244,0h.033A8.491,8.491,0,0,1,30.84.4c3.848,1.277,6.461,5.972,8.222,14.779.909,4.556,1.062,8.206.454,10.846-.566,2.453-1.792,4.062-3.645,4.782a4.2,4.2,0,0,1-1.525.3c-.195,0-.382,0-.564,0h-.038c-.163,0-.321,0-.477,0C31.484,31.105,30.2,30.906,27.449,28.152Zm.476-3.635c1.1,1.533,2.8,3.57,4.935,3.57a3.564,3.564,0,0,0,1.308-.254,4.071,4.071,0,0,0,2.879-3.175c.376-1.7.179-4.288-.638-8.378C34.9,8.727,32.658,4.7,29.355,3.6a7.331,7.331,0,0,0-2.2-.34h-.024a8.724,8.724,0,0,0-2.684.542,12.349,12.349,0,0,1-4.053.718c-.142,0-.293,0-.453-.009s-.31.009-.453.009A12.356,12.356,0,0,1,15.434,3.8a8.72,8.72,0,0,0-2.683-.542h-.025a7.327,7.327,0,0,0-2.2.34C7.223,4.7,4.981,8.727,3.471,16.28c-.816,4.091-1.013,6.674-.637,8.378a4.071,4.071,0,0,0,2.879,3.175,3.561,3.561,0,0,0,1.308.254c2.132,0,3.838-2.037,4.935-3.57,1.3-1.819,2.822-2.742,7.532-2.742q.232,0,.453,0t.453,0C25.1,21.775,26.625,22.7,27.925,24.517Zm-.434-3.564c-.274-.311-.511-.579-.694-.76-1.017-1-3-1.448-6.442-1.448-.163,0-.3,0-.415,0s-.251,0-.414,0c-3.438,0-5.425.447-6.442,1.448-.183.18-.42.449-.694.76-1.019,1.154-2.557,2.9-3.8,2.9a3.671,3.671,0,0,1-.982-.134,1.626,1.626,0,0,1-1.053-.886c-.826-1.651.016-5.232.948-8.518,1.11-3.908,1.986-6.994,4.5-7.582a7.6,7.6,0,0,1,1.649-.18h.022a12.381,12.381,0,0,1,2.153.6,17.007,17.007,0,0,0,3.691.951c.139,0,.278,0,.414-.007s.276.007.415.007a17.017,17.017,0,0,0,3.691-.951,12.381,12.381,0,0,1,2.153-.6h.022a7.613,7.613,0,0,1,1.649.18c2.518.588,3.4,3.674,4.5,7.582.933,3.286,1.775,6.867.948,8.518a1.626,1.626,0,0,1-1.053.886,3.671,3.671,0,0,1-.982.134C30.047,23.849,28.509,22.106,27.49,20.952Z" fill="#fff"/>
</svg>