<svg xmlns="http://www.w3.org/2000/svg" xmlns:xlink="http://www.w3.org/1999/xlink" width="249.606" height="72.843" viewBox="0 0 249.606 72.843">
  <defs>
    <linearGradient id="linear-gradient" x1="0.5" x2="0.5" y2="1" gradientUnits="objectBoundingBox">
      <stop offset="0" stop-color="#ff9a58"/>
      <stop offset="0.51" stop-color="#ff5e00"/>
      <stop offset="1" stop-color="#985600"/>
    </linearGradient>
    <linearGradient id="linear-gradient-2" x1="0.5" x2="0.5" y2="1" gradientUnits="objectBoundingBox">
      <stop offset="0" stop-color="#fff"/>
      <stop offset="0.703" stop-color="#9494b5"/>
      <stop offset="1" stop-color="#e4e4ff"/>
    </linearGradient>
  </defs>
  <g id="Group_2825" data-name="Group 2825" transform="translate(-22.808 -9.881)">
    <path id="Path_3938" data-name="Path 3938" d="M4734.3-1305.173h-5.06a1.094,1.094,0,0,1-.759-.225h0a1.336,1.336,0,0,1-.208-.821l1.486-24.457a2.171,2.171,0,0,1,.091-.492,1.3,1.3,0,0,1,.205-.37l6.469-11.18s.23-.422.494-.439.563.37.563.37l2.857,3.08s.367.342.369.634-.366.534-.366.534l-6.55,7.752a1.53,1.53,0,0,0-.349.454,1.81,1.81,0,0,0-.139.587l-.976,17.331a1.28,1.28,0,0,0,0,.654c.108.209.431.18.431.18h1.436a.882.882,0,0,0,.613-.092,1.18,1.18,0,0,0,.332-.6l5.533-15.16a4.146,4.146,0,0,1,.24-.509,4.536,4.536,0,0,1,.32-.476l7.049-9.444a1.082,1.082,0,0,0,.339-.7,1.273,1.273,0,0,0-.46-.682l-6.343-8.387a1.019,1.019,0,0,1-.354-.629,1.384,1.384,0,0,1,.327-.732l1.7-2.5s.31-.454.693-.436.841.508.841.508l.344.321,17.725,15.544s.527.36.489.684-.636.619-.636.619l-9.724,3.744s-.516.189-.582.543a1.511,1.511,0,0,0,.316.873l7.285,9.072s.229.39.1.581-.63.183-.63.183l-11.666-2.224a2.058,2.058,0,0,0-.438.064,1.511,1.511,0,0,0-.371.17l-6.021,3.944a1.86,1.86,0,0,0-.549.454,2.042,2.042,0,0,0-.307.667l-4.425,9.669a2.436,2.436,0,0,1-.637,1.115,1.393,1.393,0,0,1-.837.242A1.807,1.807,0,0,1,4734.3-1305.173Zm-22.006-.225a2.439,2.439,0,0,1-.638-1.115l-4.424-9.669a2.084,2.084,0,0,0-.306-.667,1.874,1.874,0,0,0-.549-.454l-6.022-3.944a1.533,1.533,0,0,0-.371-.17,2.057,2.057,0,0,0-.438-.064l-11.666,2.224s-.5.008-.63-.183.1-.581.1-.581l7.283-9.072s.384-.518.317-.873-.582-.543-.582-.543l-9.724-3.744s-.6-.293-.637-.619.489-.684.489-.684l17.726-15.544.343-.321s.458-.491.841-.508.693.436.693.436l1.7,2.5a1.372,1.372,0,0,1,.327.732,1.014,1.014,0,0,1-.354.629l-6.343,8.387a1.278,1.278,0,0,0-.46.682,1.087,1.087,0,0,0,.338.7l7.05,9.444a4.379,4.379,0,0,1,.321.476,4.146,4.146,0,0,1,.24.509l5.532,15.16a1.18,1.18,0,0,0,.332.6.886.886,0,0,0,.614.092h1.435s.323.029.431-.18a1.269,1.269,0,0,0,0-.654l-.976-17.331a1.81,1.81,0,0,0-.139-.587,1.533,1.533,0,0,0-.349-.454l-6.551-7.752s-.365-.242-.365-.534.371-.634.371-.634l2.855-3.08s.3-.388.563-.37.5.439.5.439l6.468,11.18a1.261,1.261,0,0,1,.2.37,2.185,2.185,0,0,1,.092.492l1.485,24.457a1.333,1.333,0,0,1-.208.821h0a1.094,1.094,0,0,1-.759.225h-5.058a1.839,1.839,0,0,1-.255.016A1.394,1.394,0,0,1,4712.29-1305.4Zm9.706-29.528-3.695-6.652h11.076l-3.694,6.652-1.843,15.415Zm34.668-11.5-9.617-7.506c-.006,0-.6-.35-.622-.8s.512-1,.517-1.006l3.407-4.622-.75-5.76c0-.01-.128-1.032-.485-1.041h0c-.356,0-.945,1-.95,1.007l-14.128,16.8a1.641,1.641,0,0,1-.517.541,1.425,1.425,0,0,1-.651.149c-.034,0-.054,0-.057,0h-6.833v-11.37h9.541s.072.005.173.005a2.056,2.056,0,0,0,.785-.136,1.44,1.44,0,0,0,.594-.577l13.643-16.08c.009-.012.774-1.181,1.2-1.181s.5,1.175.5,1.187l1.8,18.749,3.9,11.317c0,.01.207,1-.148,1.083a.287.287,0,0,1-.054,0C4757.516-1345.659,4756.672-1346.418,4756.665-1346.425Zm-66.53.761c-.354-.079-.15-1.072-.147-1.083l3.9-11.317,1.8-18.749c0-.012.082-1.186.5-1.187s1.185,1.169,1.193,1.181l13.645,16.08a1.428,1.428,0,0,0,.592.577,2.068,2.068,0,0,0,.785.136c.1,0,.17-.005.173-.005h9.542v11.37h-6.833s-.023,0-.057,0a1.427,1.427,0,0,1-.652-.149,1.63,1.63,0,0,1-.516-.541l-14.127-16.8c-.006-.011-.594-1.007-.951-1.007h0c-.355.009-.484,1.031-.485,1.041l-.75,5.76,3.407,4.622c.006.005.546.561.519,1.006s-.619.792-.623.8l-9.616,7.506c-.009.008-.853.766-1.239.766A.271.271,0,0,1,4690.135-1345.664Z" transform="translate(-4661.191 1387.88)" fill="url(#linear-gradient)"/>
    <path id="Union_188" data-name="Union 188" d="M127.272,43.79q-.428,0-.55-.244a.787.787,0,0,1,0-.611L133.286,25.2a1.035,1.035,0,0,0,0-.367l4.465,9.3-2.406,9.052a.767.767,0,0,1-.8.611Zm-24.769-3.3a11.784,11.784,0,0,1-3.364-8.807V12.109A11.782,11.782,0,0,1,102.5,3.3a12.275,12.275,0,0,1,8.99-3.3,12.382,12.382,0,0,1,9.021,3.3,11.725,11.725,0,0,1,3.394,8.807V31.68a11.726,11.726,0,0,1-3.394,8.807,12.384,12.384,0,0,1-9.021,3.3A12.277,12.277,0,0,1,102.5,40.488Zm6.269-31.895a4.711,4.711,0,0,0-1.009,3.15v20.3a4.711,4.711,0,0,0,1.009,3.149,3.382,3.382,0,0,0,2.721,1.193,3.473,3.473,0,0,0,2.753-1.193,4.621,4.621,0,0,0,1.039-3.149v-20.3a4.621,4.621,0,0,0-1.039-3.15A3.473,3.473,0,0,0,111.493,7.4,3.382,3.382,0,0,0,108.772,8.593ZM144.764,43.3a.767.767,0,0,1-.8-.611c-4.139-11.8-8.889-20.855-17.247-41.343a.848.848,0,0,1-.061-.367q0-.489.611-.489h7.339a.768.768,0,0,1,.8.611l4.1,11.743c.041.122.1.184.184.184s.143-.061.184-.184l4.1-11.743a.767.767,0,0,1,.8-.611h7.278q.428,0,.55.244a.788.788,0,0,1,0,.612l-8.317,20.366a.563.563,0,0,0,0,.367l8.317,20.366a.845.845,0,0,1,.061.367q0,.49-.611.489Zm-70.027,0A.731.731,0,0,1,74,42.567V1.223A.709.709,0,0,1,74.217.7a.708.708,0,0,1,.52-.214H95.653a.709.709,0,0,1,.52.214.709.709,0,0,1,.214.52V7.156a.731.731,0,0,1-.734.734H82.932a.27.27,0,0,0-.306.306v9.663a.27.27,0,0,0,.306.306H90.21a.731.731,0,0,1,.734.734v5.932a.731.731,0,0,1-.734.734H82.932a.27.27,0,0,0-.306.306v16.7a.731.731,0,0,1-.734.734Zm-14.923,0a.768.768,0,0,1-.8-.611L51.435,19.021c-.041-.122-.112-.173-.214-.153a.188.188,0,0,0-.153.214l.061,23.485a.731.731,0,0,1-.734.734H43.3a.73.73,0,0,1-.734-.734V1.223A.709.709,0,0,1,42.781.7.709.709,0,0,1,43.3.489h8.012a.768.768,0,0,1,.8.611l7.645,23.668c.041.123.112.174.214.153a.188.188,0,0,0,.153-.214L60.058,1.223A.708.708,0,0,1,60.272.7a.707.707,0,0,1,.519-.214h7.095a.709.709,0,0,1,.52.214.709.709,0,0,1,.214.52V42.567a.73.73,0,0,1-.734.734Zm-30.58,0a.731.731,0,0,1-.734-.734V1.223A.708.708,0,0,1,28.714.7a.709.709,0,0,1,.52-.214H36.39A.709.709,0,0,1,36.91.7a.709.709,0,0,1,.214.52V42.567a.73.73,0,0,1-.734.734Zm-28.5,0a.709.709,0,0,1-.52-.214A.709.709,0,0,1,0,42.567V1.162A.708.708,0,0,1,.214.642.708.708,0,0,1,.734.428H13.088a11.034,11.034,0,0,1,5.994,1.651A10.944,10.944,0,0,1,23.149,6.7a15.3,15.3,0,0,1,1.437,6.758,13.172,13.172,0,0,1-3.058,9.113,10.23,10.23,0,0,1-8.012,3.425H8.929a.27.27,0,0,0-.306.306V42.567a.731.731,0,0,1-.734.734ZM8.623,8.2V18.959a.27.27,0,0,0,.306.306H11.62a3.828,3.828,0,0,0,3.15-1.5,6.462,6.462,0,0,0,1.193-4.128,6.7,6.7,0,0,0-1.193-4.22,3.8,3.8,0,0,0-3.15-1.529H8.929A.27.27,0,0,0,8.623,8.2Zm142.7,18.232a6.308,6.308,0,1,1,4.46,1.847A6.266,6.266,0,0,1,151.328,26.427Zm-.519-4.46a4.98,4.98,0,1,0,4.98-4.98A4.985,4.985,0,0,0,150.809,21.967Zm6.289,3.226-1.423-2.514h-.611v2.514H153.77V18.741h2.422c1.553,0,2.33.9,2.33,1.978a1.862,1.862,0,0,1-1.47,1.857l1.543,2.616Zm-2.034-3.485h1.082c.721,0,1.044-.379,1.044-.961s-.323-.934-1.044-.934h-1.082Z" transform="translate(109.818 24.407)" stroke="rgba(0,0,0,0)" stroke-miterlimit="10" stroke-width="1" fill="url(#linear-gradient-2)"/>
  </g>
</svg>
